<?xml version="1.0" encoding="utf-8"?>
<svg viewBox="157.377 143.677 117.304 118.808" xmlns="http://www.w3.org/2000/svg" xmlns:bx="sam-sdelal">
  <defs>
    <linearGradient gradientUnits="userSpaceOnUse" x1="314" y1="280.476" x2="314" y2="363.524" id="gradient-0" spreadMethod="pad">
      <stop offset="0" style="stop-color: #bada55"/>
      <stop offset="1" style="stop-color: #758d29"/>
    </linearGradient>
  </defs>
  <path d="M 314 322 m -41.524 0 a 41.524 41.524 0 1 0 83.048 0 a 41.524 41.524 0 1 0 -83.048 0 Z M 314 322 m -24.915 0 a 24.915 24.915 0 0 1 49.83 0 a 24.915 24.915 0 0 1 -49.83 0 Z" style="fill: url(#gradient-0); paint-order: fill; fill-opacity: 0.34;" transform="matrix(-0.741204, 0.671279, -0.671279, -0.741204, 664.918701, 231.718857)" bx:shape="ring 314 322 24.915 24.915 41.524 41.524 1@4137a00d"/>
  <path d="M 202.722 211.382 L 196.212 211.382 L 196.212 209.662 L 197.942 209.362 L 204.102 201.282 L 198.392 193.512 L 196.652 193.212 L 196.652 191.472 L 203.102 191.472 L 203.102 193.212 L 201.232 193.392 L 205.632 199.532 L 209.822 193.392 L 207.902 193.212 L 207.902 191.472 L 214.402 191.472 L 214.402 193.212 L 212.582 193.512 L 207.182 201.282 L 213.172 209.362 L 214.932 209.662 L 214.932 211.382 L 208.402 211.382 L 208.402 209.662 L 210.322 209.482 L 205.612 203.012 L 200.902 209.482 L 202.722 209.662 L 202.722 211.382 ZM 224.281 211.382 L 217.131 211.382 L 217.131 209.662 L 219.361 209.272 L 219.361 193.592 L 217.131 193.212 L 217.131 191.472 L 224.281 191.472 L 224.281 193.212 L 222.051 193.592 L 222.051 209.272 L 224.281 209.662 L 224.281 211.382 ZM 233.644 211.382 L 226.494 211.382 L 226.494 209.662 L 228.724 209.272 L 228.724 193.592 L 226.494 193.212 L 226.494 191.472 L 233.644 191.472 L 233.644 193.212 L 231.414 193.592 L 231.414 209.272 L 233.644 209.662 L 233.644 211.382 Z" transform="matrix(1, 0, 0, 1, 0, 0)" style="fill: rgb(51, 51, 51); white-space: pre;"/>
  <path d="M 178.854 192.68 H 208.473 L 206.808 181.51 L 246.808 201.51 L 206.808 221.51 L 208.473 210.341 H 178.854 V 192.68 Z" style="fill: rgb(97, 160, 218);" transform="matrix(0.017094, -0.999854, 0.999854, 0.017094, -22.77253, 387.346313)" bx:shape="arrow 178.854 181.51 67.954 40 17.661 40 1.665 1@c413d3eb"/>
</svg>